# xmcd
#
# Track frame offsets:
#	150
#	18268
#	34295
#	56832
#	72356
#	114016
#	132082
#	161117
#	184079
#	210202
#	234519
#	251672
#	274632
#	300533
#	323982
#
# Disc length: 4730
#
# Revision: 1
# Processed by: cddbd v1.5.1PL0 Copyright (c) Steve Scherf et al.
# Submitted via: CDex 1.51
# Normalized: r0:TDELIM( - )
#
DISCID=ca12780f
DTITLE=Various Artist - The best of Jazz Electro
DYEAR=2004
DGENRE=Jazz
TTITLE0=Vibra - Reverand Funk
TTITLE1=Lakasha - Paris by Night
TTITLE2=Groove Armada - Black Sheep
TTITLE3=Ikon - Thinking of You
TTITLE4=Bugge Wesseltoft - Yellow is the colour
TTITLE5=Oscar - Freezer
TTITLE6=Ida Yasushi - A certain Peace
TTITLE7=Mo' Horizons - Bosshannover
TTITLE8=Trio Eletrico - Mini-Poodle-Circus
TTITLE9=Physics - Flying Away
TTITLE10=Langoth - Riga
TTITLE11=Al Stylus - High Rise
TTITLE12=Atjazz - Wrong type of day
TTITLE13=Tutto Matto - Mango N'Soda
TTITLE14=Dalminjo - And she said
EXTD=YEAR: 2004
EXTT0=
EXTT1=
EXTT2=
EXTT3=
EXTT4=
EXTT5=
EXTT6=
EXTT7=
EXTT8=
EXTT9=
EXTT10=
EXTT11=
EXTT12=
EXTT13=
EXTT14=
PLAYORDER=
